<?xml version="1.0" encoding="UTF-8" standalone="no"?>
<!-- Created with Inkscape (http://www.inkscape.org/) -->

<svg
   xmlns:dc="http://purl.org/dc/elements/1.1/"
   xmlns:cc="http://creativecommons.org/ns#"
   xmlns:rdf="http://www.w3.org/1999/02/22-rdf-syntax-ns#"
   xmlns:svg="http://www.w3.org/2000/svg"
   xmlns="http://www.w3.org/2000/svg"
   xmlns:xlink="http://www.w3.org/1999/xlink"
   xmlns:sodipodi="http://sodipodi.sourceforge.net/DTD/sodipodi-0.dtd"
   xmlns:inkscape="http://www.inkscape.org/namespaces/inkscape"
   width="256"
   height="256"
   viewBox="0 0 67.733333 67.733335"
   version="1.1"
   id="svg1006"
   inkscape:version="0.92.3 (2405546, 2018-03-11)"
   sodipodi:docname="nberry-white.svg">
  <defs
     id="defs1000">
    <linearGradient
       inkscape:collect="always"
       xlink:href="#linearGradient4561"
       id="linearGradient994-4"
       x1="156.86653"
       y1="147.79007"
       x2="161.8317"
       y2="150.79021"
       gradientUnits="userSpaceOnUse"
       gradientTransform="matrix(3.2247377,0,0,3.2247387,-475.4343,-205.83683)" />
    <linearGradient
       inkscape:collect="always"
       id="linearGradient4561">
      <stop
         style="stop-color:#eaeaea;stop-opacity:1"
         offset="0"
         id="stop4557" />
      <stop
         style="stop-color:#ffffff;stop-opacity:1"
         offset="1"
         id="stop4559" />
    </linearGradient>
  </defs>
  <sodipodi:namedview
     id="base"
     pagecolor="#ffffff"
     bordercolor="#666666"
     borderopacity="1.0"
     inkscape:pageopacity="0.0"
     inkscape:pageshadow="2"
     inkscape:zoom="1.4"
     inkscape:cx="51.745234"
     inkscape:cy="108.26113"
     inkscape:document-units="mm"
     inkscape:current-layer="layer1"
     showgrid="false"
     units="px"
     inkscape:window-width="1366"
     inkscape:window-height="705"
     inkscape:window-x="-8"
     inkscape:window-y="-8"
     inkscape:window-maximized="1" />
  <metadata
     id="metadata1003">
    <rdf:RDF>
      <cc:Work
         rdf:about="">
        <dc:format>image/svg+xml</dc:format>
        <dc:type
           rdf:resource="http://purl.org/dc/dcmitype/StillImage" />
        <dc:title />
      </cc:Work>
    </rdf:RDF>
  </metadata>
  <g
     inkscape:label="Layer 1"
     inkscape:groupmode="layer"
     id="layer1"
     transform="translate(0,-229.26663)">
    <ellipse
       style="opacity:0.77999998;fill:url(#linearGradient994-4);fill-opacity:1;stroke:none;stroke-width:0.53208184;stroke-linecap:butt;stroke-linejoin:miter;stroke-miterlimit:4;stroke-dasharray:none;stroke-dashoffset:0;stroke-opacity:1;paint-order:markers fill stroke"
       id="path984-4"
       cx="32.25264"
       cy="280.42212"
       rx="14.177829"
       ry="14.177833" />
    <g
       id="g1573"
       transform="matrix(1.2249857,0,0,1.2249861,15.937701,229.33965)"
       style="opacity:0.77999998;fill:#f9f9f9;fill-opacity:1">
      <path
         id="path1569"
         d="M 1.2,8.7 C -1.3,16.3 0.1,23.9 4.9,27.8 6,28.7 8,30 11.3,30.4 9,25.2 6.7,20 4.3,14.8 c 2.5,4.3 5,8.7 7.5,13 C 11.5,26.9 11.3,26 11.1,25 10.3,21.1 10.6,17.7 11.1,15.1 10.5,14.5 9.8,14 9.1,13.4 6.4,11.2 3.6,9.7 1.2,8.7 Z"
         inkscape:connector-curvature="0"
         style="fill:#f9f9f9;fill-opacity:1" />
      <path
         id="path1571"
         d="M 13.6,29 C 13,27.7 12.3,25.9 12,23.8 c -0.8,-5.2 1,-9.4 1.9,-11.3 0,0 4.1,-6.3 17.6,-12.5 0,0 7.2,29.3 -16.3,30.8 L 26.8,8.7 C 22.4,15.4 18,22.2 13.6,29 Z"
         inkscape:connector-curvature="0"
         style="fill:#f9f9f9;fill-opacity:1" />
    </g>
  </g>
</svg>
